<svg xmlns="http://www.w3.org/2000/svg" width="175" height="101" viewBox="0 0 175 101">
    <g fill="none" fill-rule="evenodd">
        <path fill="#FFF" d="M35.38 91.271V89.09h-5.803v1.874h2.983l-3.075 4.492v2.187h5.959v-1.889h-3.13l3.066-4.482zm20.436 1.036c-.123.153-.3.224-.712.264h-.83v-1.608h.644c.05 0 .102.012.154.012.33.01.465.051.612.144.364.213.445.796.132 1.188zm1.81 2.235c-.317-.759-.43-.913-.733-1.056a.67.67 0 0 0 .147-.06c.939-.441 1.393-1.545 1.035-2.77-.291-1.01-1.058-1.567-2.51-1.567h-3.407v8.553h2.16v-3.197h.496c.349 0 .56.154.742.609l.115.271.063.154.816 2.163h2.242L57.74 94.84c-.04-.108-.07-.2-.116-.297zm5.042-.418l.795-2.713.798 2.713h-1.593zm1.992-5.035h-2.386l-2.872 8.553h2.17l.483-1.567h2.769l.47 1.567h2.295L64.66 89.09zm-41.478 5.035l.792-2.713.8 2.713h-1.592zm-.396-5.035l-2.867 8.553h2.163l.488-1.567h2.766l.47 1.567h2.298l-2.928-8.553h-2.39zM3.434 94.124l.797-2.713.798 2.713H3.434zM3.04 89.09L.175 97.642h2.162l.488-1.567h2.767l.469 1.567h2.295L5.431 89.09H3.04zm43.836 5.255h2.816v-1.828h-2.816v-1.553h3.272v-1.874h-5.425v8.553h5.715v-1.817h-3.562v-1.481zm-7.448 0h2.82v-1.828h-2.82v-1.553h3.274v-1.874h-5.424v8.553h5.71v-1.817h-3.56v-1.481zM16.479 97.1c0 1.306-.468 1.782-1.502 1.483a.782.782 0 0 1-.173-.06l-.51 1.858c.115.058.23.104.353.154 2.41.913 3.991-.443 3.991-2.82v-8.626h-2.16v8.01zm-1.922-1.368h-2.651v-6.643H9.733v8.553h4.824v-1.91zM74.587 89l1.954 5.501h.024L78.414 89H81v8h-1.72v-5.67h-.024L77.208 97h-1.416l-2.048-5.613h-.024V97H72v-8zM88.911 89v1.479h-4.173v1.714h3.83v1.367h-3.83v1.961H89V97h-6v-8zM94.29 95.521c.25 0 .494-.04.73-.123.237-.082.447-.219.632-.41.184-.19.332-.438.443-.744.11-.306.166-.68.166-1.12 0-.404-.039-.768-.116-1.093a2.186 2.186 0 0 0-.382-.835 1.696 1.696 0 0 0-.704-.532c-.291-.123-.651-.185-1.08-.185h-1.24v5.042h1.55zM94.41 89c.51 0 .984.082 1.424.246.439.165.82.411 1.14.74.322.329.573.74.754 1.232.18.493.271 1.072.271 1.737 0 .583-.074 1.12-.222 1.614a3.567 3.567 0 0 1-.67 1.277c-.299.358-.672.64-1.118.846-.447.205-.973.308-1.579.308H91v-8h3.411zM100 97h2v-8h-2zM107.043 93.908l-1.032-2.936h-.023l-1.065 2.936h2.12zM106.94 89l3.06 8h-1.868l-.62-1.782h-3.06L103.812 97H102l3.095-8h1.845zM115 97h2v-8h-2zM119.811 89l3.46 5.367h.023V89H125v8h-1.822l-3.448-5.356h-.023V97H118v-8zM128.922 95.687c.1.2.235.363.402.488.167.124.363.217.588.277.225.06.458.09.699.09.163 0 .338-.014.524-.042.186-.028.36-.082.524-.163.163-.08.299-.19.408-.331a.85.85 0 0 0 .163-.536.768.768 0 0 0-.216-.566 1.7 1.7 0 0 0-.565-.362 5.534 5.534 0 0 0-.792-.253 21.168 21.168 0 0 1-.896-.24 7.706 7.706 0 0 1-.909-.296 3.085 3.085 0 0 1-.792-.452 2.106 2.106 0 0 1-.565-.693c-.143-.277-.215-.612-.215-1.006 0-.441.091-.825.274-1.15.182-.325.42-.597.716-.814a3.076 3.076 0 0 1 1.002-.481A4.13 4.13 0 0 1 130.39 89c.434 0 .851.05 1.252.15.4.101.755.264 1.065.488.31.225.557.513.74.862.182.35.274.773.274 1.271h-1.77a1.565 1.565 0 0 0-.158-.638 1.051 1.051 0 0 0-.355-.398 1.474 1.474 0 0 0-.507-.205c-.19-.04-.398-.06-.623-.06a2.07 2.07 0 0 0-.442.048 1.17 1.17 0 0 0-.402.169c-.12.08-.22.18-.297.301a.83.83 0 0 0-.117.458c0 .168.031.305.093.41.062.104.185.2.367.289.183.088.435.176.757.265.322.088.744.2 1.264.337.155.032.37.09.646.175.276.084.55.219.821.403.272.185.507.432.705.741.198.31.297.705.297 1.187 0 .394-.074.76-.221 1.096a2.37 2.37 0 0 1-.658.874 3.12 3.12 0 0 1-1.084.572c-.43.137-.93.205-1.496.205a5.09 5.09 0 0 1-1.333-.175 3.298 3.298 0 0 1-1.142-.548 2.682 2.682 0 0 1-.786-.952c-.194-.385-.287-.843-.28-1.373h1.77c0 .289.051.534.152.735M134 90.479V89h7v1.479h-2.56V97h-1.88v-6.521zM142 97h2v-8h-2zM144 90.479V89h7v1.479h-2.56V97h-1.88v-6.521zM159.069 97.13c-.62.58-1.48.87-2.575.87-1.111 0-1.971-.288-2.58-.863-.61-.575-.914-1.463-.914-2.663V89h1.804v5.474c0 .239.02.473.058.703a1.349 1.349 0 0 0 .753 1.042c.218.11.511.166.88.166.643 0 1.087-.154 1.332-.462.246-.309.368-.791.368-1.449V89H160v5.474c0 1.192-.31 2.078-.931 2.657M161 90.479V89h7v1.479h-2.56V97h-1.88v-6.521zM174.911 89v1.479h-4.173v1.714h3.83v1.367h-3.83v1.961H175V97h-6v-8zM36.726 83.273c-.09-.745-.21-1.348-.357-1.807-.147-.46-.33-.69-.55-.69-.075 0-.207.096-.396.286a2.9 2.9 0 0 0-.357.515c-.125.22-.229.417-.312.59.461.208.852.409 1.173.603.321.195.588.363.8.503m-2.913-1.428c.408-.92.799-1.623 1.173-2.112.374-.489.73-.733 1.07-.733.5 0 .915.39 1.247 1.168.099.232.197.524.295.875.098.353.204.777.318 1.274.068.34.094.588.079.745-.015.215-.102.489-.26.82-.303.679-.59 1.019-.862 1.019a.703.703 0 0 1-.318-.087 4.41 4.41 0 0 1-.436-.249c-.17-.108-.36-.228-.572-.36a21.335 21.335 0 0 0-.697-.416c-.254-.145-.52-.284-.8-.416a.57.57 0 0 0-.357-.05.467.467 0 0 0-.255.161.834.834 0 0 0-.153.299 1.19 1.19 0 0 0-.05.335V87H32v-3.752c0-.265.051-.498.153-.702.102-.202.238-.366.408-.49.17-.125.365-.205.584-.243.219-.037.442-.026.669.032M40.047 79.006a2.3 2.3 0 0 1 .325-.142c.15-.055.3-.114.454-.177.178-.07.37-.141.574-.212.255.307.504.698.747 1.174.242.476.464.968.664 1.475.2.507.376.993.53 1.457.153.464.272.838.357 1.12.187-.023.338-.074.453-.152a.898.898 0 0 0 .268-.278.99.99 0 0 0 .128-.348c.021-.125.032-.251.032-.377v-5.098L46.213 77v6.006c0 .252.07.433.21.543.14.11.326.165.556.165H48V85h-.574c-.409 0-.758-.07-1.047-.212a1.521 1.521 0 0 1-.651-.567c-.196.228-.47.415-.824.56-.353.146-.828.219-1.423.219H39l.447-1.286h2.668a20.09 20.09 0 0 0-.268-.962 14.107 14.107 0 0 0-1.009-2.448c-.23-.44-.493-.873-.791-1.298M48 82.737h1.955c-.163-.201-.271-.446-.324-.736a5.112 5.112 0 0 1-.08-.921c0-.626.267-1.123.8-1.49.534-.367 1.27-.562 2.206-.585.342-.015.729.004 1.16.058.432.054.843.116 1.234.185v1.299a12.162 12.162 0 0 0-.458-.105 9.402 9.402 0 0 0-.599-.104c-.215-.03-.44-.056-.671-.075a8.226 8.226 0 0 0-.678-.03c-.18 0-.347.012-.501.035-.155.023-.292.07-.41.14a.72.72 0 0 0-.274.29 1.014 1.014 0 0 0-.098.474c0 .417.043.748.128.991.086.244.197.435.336.574H55V84h-7v-1.263z"/>
        <path fill="#FFF" d="M60.468 89.11l-3.064.89v-.79l.843-.25a.51.51 0 0 1-.25-.12.88.88 0 0 1-.184-.225 1.284 1.284 0 0 1-.122-.282.938.938 0 0 1-.044-.264c0-.259.06-.49.178-.695.12-.205.27-.38.454-.527.183-.146.38-.257.593-.332.213-.075.413-.113.6-.113.196 0 .383.031.562.094.179.063.353.203.523.42a41.56 41.56 0 0 0-.753.614.765.765 0 0 0-.574-.238c-.222 0-.38.059-.473.176a.56.56 0 0 0-.14.35c0 .11.032.21.096.302.064.091.142.169.236.231a1.38 1.38 0 0 0 .562.22l.957-.276v.815zm-3.421-9.979c.068-.042.176-.092.325-.15.15-.059.3-.121.453-.188.18-.076.37-.15.575-.226.255.326.504.742.747 1.247.242.506.464 1.028.664 1.567.2.54.376 1.056.53 1.549.153.493.272.89.357 1.19a.982.982 0 0 0 .453-.162.93.93 0 0 0 .268-.295c.064-.113.106-.236.128-.37.02-.133.032-.267.032-.401v-5.416L63.213 77V83.381c0 .267.07.46.21.577.14.117.326.175.556.175H65V85.5h-.575c-.408 0-.757-.076-1.046-.226a1.554 1.554 0 0 1-.651-.602c-.196.243-.47.441-.824.596-.353.154-.828.232-1.423.232H56l.447-1.367h2.668a22.399 22.399 0 0 0-.268-1.022 15.62 15.62 0 0 0-1.009-2.6c-.23-.469-.493-.929-.791-1.38z"/>
        <path fill="#FFF" d="M64 83.714h2.046v-6.29L68 77v8h-4zM74.417 78.04c0-.287.094-.532.282-.735a.891.891 0 0 1 1.048-.221c.114.056.214.13.298.22.085.093.151.202.199.33.048.127.072.263.072.406 0 .28-.092.519-.276.718a.87.87 0 0 1-.663.299.919.919 0 0 1-.678-.293 1.082 1.082 0 0 1-.205-.323 1.03 1.03 0 0 1-.077-.4m1.049 4.854a2.886 2.886 0 0 0-.21-.986 2.19 2.19 0 0 0-.326-.544 1.12 1.12 0 0 0-.524-.359c-.132.08-.254.193-.364.34-.11.148-.206.302-.287.461-.081.16-.145.32-.193.479a1.43 1.43 0 0 0-.072.394c0 .16.026.295.077.407a.864.864 0 0 0 .193.275.697.697 0 0 0 .265.155c.1.032.2.048.304.048.324 0 .594-.054.811-.161.217-.108.326-.277.326-.509m-3.3-4.855c0-.287.093-.532.281-.735a.89.89 0 0 1 1.049-.221c.114.056.213.13.298.22.084.093.15.202.198.33.048.127.072.263.072.406 0 .28-.092.519-.276.718a.87.87 0 0 1-.662.299.92.92 0 0 1-.679-.293 1.082 1.082 0 0 1-.204-.323 1.03 1.03 0 0 1-.077-.4M77 82.93c0 .375-.066.692-.199.95-.132.26-.316.473-.552.64a2.357 2.357 0 0 1-.844.365 4.78 4.78 0 0 1-1.876.042 2.3 2.3 0 0 1-.75-.263 1.66 1.66 0 0 1-.558-.514c-.148-.215-.221-.49-.221-.825 0-.622.12-1.182.359-1.68a3.66 3.66 0 0 1 1.032-1.286l-.387-.18.541-.944c.53.12 1.008.293 1.435.52.427.228.79.499 1.087.814.298.315.528.671.69 1.07.162.398.243.829.243 1.291"/>
        <path fill="#FFF" d="M79.337 79a20.5 20.5 0 0 1 .256 1.926c.054.642.093 1.24.116 1.795H81v1.557h-1.28c-.007.135-.028.297-.063.487s-.095.385-.18.583a2.717 2.717 0 0 1-.36.594 2.365 2.365 0 0 1-.611.535 3.3 3.3 0 0 1-.925.38 5.272 5.272 0 0 1-1.314.143L76 86.025c.403-.008.76-.083 1.07-.226.131-.063.261-.142.39-.237.127-.095.241-.214.342-.357.101-.143.182-.313.244-.511s.094-.428.094-.69c0-.72-.018-1.462-.053-2.222-.035-.761-.15-1.51-.343-2.247L79.337 79zM82 85h4v-2h-4zM88.267 86.913c0-.306.086-.569.257-.786.171-.217.378-.326.62-.326.12 0 .233.03.337.09.104.06.195.138.272.236.077.098.138.215.182.352.043.136.065.28.065.434 0 .299-.084.554-.252.767-.168.213-.37.32-.604.32a.737.737 0 0 1-.343-.083.844.844 0 0 1-.277-.23 1.268 1.268 0 0 1-.257-.773zm-2.055 0c0-.306.085-.569.257-.786.17-.217.377-.326.62-.326.12 0 .232.03.337.09a.94.94 0 0 1 .272.236c.077.098.137.215.181.352.044.136.066.28.066.434 0 .299-.084.554-.252.767-.168.213-.37.32-.605.32a.738.738 0 0 1-.342-.083.842.842 0 0 1-.277-.23 1.268 1.268 0 0 1-.257-.773zM89.829 79v5.702H86v-1.675h2.277v-3.465L89.829 79zM92.314 78.08c0-.298.099-.552.296-.763a.945.945 0 0 1 1.105-.23 1.034 1.034 0 0 1 .523.571c.05.132.076.273.076.422 0 .29-.097.538-.29.745a.922.922 0 0 1-.698.31.98.98 0 0 1-.716-.304 1.123 1.123 0 0 1-.215-.335 1.055 1.055 0 0 1-.081-.416zm2.023 1.564c.116.671.202 1.341.256 2.012.054.67.093 1.295.116 1.874H96v1.627h-1.28c-.007.14-.028.31-.063.509a2.873 2.873 0 0 1-.54 1.229 2.402 2.402 0 0 1-.611.559 3.23 3.23 0 0 1-.925.397c-.364.1-.802.149-1.314.149L91 86.982c.403-.008.76-.087 1.07-.236.131-.066.261-.149.39-.248.127-.1.241-.224.342-.373.101-.149.182-.327.245-.534.061-.207.093-.446.093-.72 0-.753-.018-1.527-.053-2.321a11.693 11.693 0 0 0-.343-2.347l1.593-.559zM98.908 86.906c0-.31.1-.573.298-.792a.936.936 0 0 1 1.11-.239 1.062 1.062 0 0 1 .525.593c.05.137.076.283.076.438 0 .3-.098.557-.292.772a.914.914 0 0 1-.7.322.958.958 0 0 1-.72-.315 1.174 1.174 0 0 1-.215-.348 1.127 1.127 0 0 1-.082-.431zM104 84.742h-8v-1.686h4.998c-.202-.446-.375-.82-.52-1.12a6.085 6.085 0 0 0-.39-.715c-.117-.176-.23-.3-.34-.374a.658.658 0 0 0-.373-.109.847.847 0 0 0-.525.168c-.148.111-.32.3-.514.566l-1.016-.991a3.238 3.238 0 0 1 1.71-1.365c.23-.078.462-.116.695-.116.257 0 .495.062.713.187.218.124.436.324.654.598.218.275.453.633.706 1.076.253.442.543.976.87 1.603.11.206.238.356.386.45a.873.873 0 0 0 .479.142H104v1.686zM108 77v8h-4v-1.528h1.846v-5.959zM111 77v8h-2v-7.487zM115.115 82.67c.094.028.196.057.307.085.093.022.204.04.332.054.127.014.268.021.421.021h2.887c0-.135-.025-.316-.076-.541a2.401 2.401 0 0 0-.307-.714c-.154-.25-.38-.499-.677-.746-.298-.246-.698-.463-1.2-.649l.357-1.18c.57.129 1.094.35 1.571.665.204.136.409.299.613.488.205.19.396.414.575.671.179.258.334.552.466.885.132.333.228.707.288 1.121H122V84h-5.94c-.153 0-.294-.007-.421-.021a2.947 2.947 0 0 1-.332-.054 6.799 6.799 0 0 1-.307-.086l.115-1.17zM128.184 83.626a8.437 8.437 0 0 0-.113-1.103 2.585 2.585 0 0 0-.307-.87 1.701 1.701 0 0 0-.613-.605c-.263-.155-.607-.258-1.033-.309.226.177.396.427.513.75.117.324.176.687.176 1.09 0 .203-.028.396-.082.58-.054.186-.094.341-.119.467h1.578zm-2.642-.895c0-.412-.073-.745-.219-1.002-.146-.256-.315-.385-.507-.385a.36.36 0 0 0-.256.101.782.782 0 0 0-.175.259c-.046.105-.08.218-.1.34-.021.122-.032.238-.032.347 0 .1.006.222.019.365a1.5 1.5 0 0 0 .094.41c.05.13.125.24.225.328.1.088.242.132.426.132a.423.423 0 0 0 .394-.246c.088-.163.131-.38.131-.649zm4.231.895H131V85h-9v-1.374h1.377a.676.676 0 0 1-.288-.498 6.294 6.294 0 0 1-.038-.725c0-.193.032-.399.094-.617.063-.219.153-.427.27-.624a1.98 1.98 0 0 1 .419-.505c.163-.138.344-.224.544-.258a1.84 1.84 0 0 1-.632-.095 1.073 1.073 0 0 1-.425-.277 1.212 1.212 0 0 1-.257-.441 3.436 3.436 0 0 1-.138-.586c.634.193 1.698.357 3.192.491.676.085 1.246.219 1.709.404.463.185.839.439 1.126.762.288.324.497.723.626 1.198.13.475.194 1.048.194 1.72v.051z"/>
        <path fill="#FFF" d="M135.64 80.767a1.325 1.325 0 0 0-.34-.26 2.884 2.884 0 0 0-.915-.312 2.788 2.788 0 0 0-.448-.04c-.143 0-.297.015-.46.046-.165.03-.325.071-.48.121-.156.05-.299.114-.43.19-.13.078-.233.162-.309.255l1.679 1.974 1.703-1.974zM135.135 84c-.269 0-.5-.04-.693-.121-.194-.081-.362-.237-.505-.468-.143.231-.312.387-.505.468a1.8 1.8 0 0 1-.694.121H130v-1.259h2.322l-1.704-1.986c.437-.616.932-1.062 1.483-1.34a4.028 4.028 0 0 1 1.836-.415c.673 0 1.285.137 1.836.41.55.273 1.05.718 1.495 1.333l-1.704 1.998H138V84h-2.865z"/>
        <path fill="#FFF" d="M141.634 83.345c-.098-.758-.225-1.37-.384-1.838-.158-.467-.354-.7-.59-.7-.08 0-.223.096-.425.29a2.96 2.96 0 0 0-.383.524 9.688 9.688 0 0 0-.335.6c.34.27.694.499 1.058.688.365.19.718.335 1.059.436m1.362-.214c-.017.218-.11.496-.28.833-.325.69-.633 1.036-.925 1.036a.788.788 0 0 1-.34-.088 15.97 15.97 0 0 1-.991-.468c-.418-.21-.922-.471-1.514-.783-.138.253-.296.417-.474.493-.138.05-.365.075-.682.075H137v-1.376h.9c.243-.581.499-1.11.766-1.586.268-.475.533-.88.797-1.212.263-.333.518-.592.766-.777.247-.185.476-.278.687-.278.535 0 .98.396 1.338 1.187.105.236.21.533.316.89.105.359.219.79.34 1.295.073.346.102.599.086.759"/>
        <path fill="#D89D12" d="M80.073 19.172c-1.136.036-2.032 1.01-1.994 2.191.028 1.166.978 2.08 2.117 2.05 1.138-.03 2.031-1.016 1.995-2.183-.032-1.146-.945-2.058-2.05-2.058h-.068zM87.893.498c-1.053.759-1.931 2.48-1.925 5.11.009 1.616.448 3.551 1.66 5.717-1.627 2.281-1.926 4.384-1.235 6.393.525 1.528.791 1.925 1.03 2.84.6 2.327-.064 5.117-1.849 9.42-1.446 3.508-3.328 7.176-3.328 11.644.01 1.025.093 2.022.234 3.001.168-.17.526-.514.964-.926-.215-3.5 1.141-7.021 2.808-10.183 2.425-4.62 2.724-9.318 2.257-11.89 1.702 1.87 4.573 4.664 6.249 7.53.565.965.905 1.878.988 2.808.079 2.265-.614 3.889-1.967 5.482-1.145 1.344-.749 2.531-.7 2.764.086.382.554 1.846.882 2.805 1.27-2.552 4.773-3.99 6.362-6.112.364 2.613-1.55 5.099-2.97 6.765-.34.375-.71.76-1.13 1.176-2.69 2.64-4.455 4.455-5.39 6.14-.24.374-.628 1.213-.822 1.859-.274.807-.624 2.178-.917 4.591-.223 1.424-.474 3.124-.556 3.882-.182 1.724-.688 4.46-2.75 5.24a1.747 1.747 0 0 1-.337.099v.01c-1.966.44-3.979-1.25-5.443-4.29-.301.236-.63.445-.988.608C81.002 67.79 83.985 70 86.597 70c1.98 0 3.544-1.024 4.044-4.012.26-1.506.443-3.175.607-4.795.08-.78.454-5.182 1.146-6.78.851-1.79 2.718-3.523 5.5-6.464 1.716-1.826 2.653-3.347 3.141-4.572 1.619-3.043-.386-10.28-.776-11.58-.012-.047-.016-.058-.042-.058-.04 0-.052.011-.082.064a.087.087 0 0 1-.015.03c-.716 1.199-1.994 2.29-3.183 3.184.669-1.884.488-3.317.221-4.522v-.01c-.016-.068-.033-.14-.051-.209l-.003.008c-1.203-4.802-5.988-9.077-8.145-11.54-2.804-3.193-1.849-5.25-.815-6.556.194.292.394.604.621.917 3.813 5.307 10.996 13.728 14.76 21.75.957 2.025 1.689 4.017 2.09 5.914 1.484 8.308-4.166 16.757-12.636 14.382h-.004a1.737 1.737 0 0 1-.163-.048c-.23.739-.446 1.917-.66 3.527 1.284.559 2.675.895 4.026.955l.001.003c.099.001.2.004.297.008 6.96.078 12.407-5.27 11.405-16.495 0 0-.418-4.67-2.772-9.587-3.765-8.639-10.73-17.186-15.006-22.708-1.356-1.755-2.153-3.272-2.555-4.584-.8-2.552-.29-4.53.735-5.395a4.09 4.09 0 0 1 .749-.534c.153-.082.094-.267-.015-.287-.023 0-.058-.006-.094-.006-.149 0-.441.069-1.03.498zm-5.15 15.034c-1.134.031-2.027 1.011-1.995 2.177.036 1.171.98 2.098 2.116 2.06.62-.018 1.157-.323 1.527-.767l.043-.053c.242 1.687-.543 3.035-2.371 4.595-1.87 1.62-6.244 3.732-9.354 6.264-4.377 3.56-5.41 7.434-5.677 10.571-.114 1.4.085 3.241.456 4.763.465 1.915 1.14 3.381 1.14 3.381s.035.061.088.166c-.111 2.076.092 5.703 1.23 8.442 1.53 3.533 4.279 6.425 8.222 5.575 3.98-.962 4.425-7.616 4.879-12.473.118-.796.238-.937.474-1.141.64-.558 2.192-2.057 2.931-2.723.458-.415.855-.829 1.113-1.358.329-.643.155-1.5.155-1.5l-.446-3.201c-.11.455-.652 1.092-1.413 1.879-.792.824-2.905 2.687-3.098 2.892-.19.199-.879.712-1.173 3.155-.763 6.645-2.036 9.782-4.322 10.842-.603.292-1.28.428-2.03.447-4.19-.041-5.292-5.287-5.272-8.163.003-.168.006-.342.015-.5.973 1.347 2.41 2.683 4.183 2.405 2.828-.443 1.948-5.347 1.537-6.484-.4-1.145-1.497-4.558-3.868-4.39-1.68.118-2.463 2.142-2.82 3.856-.323-1.355-.496-2.943-.39-4.183.249-2.967 1.237-6.672 5.438-10.322 2.993-2.598 6.384-4.453 8.27-5.984 1.2-.97 1.945-2.057 2.363-3.078-.118.99-.356 2.062-.818 3.312-1.74 4.71-7.023 12.486-7.094 23.475 0 3.378.309 6.299.832 8.797a4.05 4.05 0 0 0 .809-.78 29.306 29.306 0 0 1-.58-5.875c0-10.965 5.248-18.73 6.959-23.43.896-2.475.918-4.28.918-6.061 0-2.186-.474-4.468-.917-5.357-.478-.853-1.072-1.23-1.96-1.23h-.1zM70.308 48.896c.324-1.053.909-2 1.927-2.592 1.67-.803 2.325 1.251 2.325 1.251-.116 1.391-1.144 2.121-2.288 2.121-.67 0-1.385-.258-1.964-.78zm22.057-17.27c-.2.22-1.141 1.28-2.046 2.3l-1.75 1.967c-.387.442-.59.876-.539 1.11l.234 1.186c.062-.22.31-.623.582-.935.194-.218 1.135-1.284 2.043-2.295.805-.91 1.578-1.773 1.75-1.974.389-.43.59-.87.537-1.1l-.24-1.194c-.056.225-.298.623-.571.936zm-16.277 1.772s-1.652 1.206-2.317 2.803c-.408.977-.38 2.034-.15 2.545.234.51.785.998 1.501.41.502-.41.722-.985.83-1.477.068-.292.09-.476.09-.62 0-.18-.058-.33-.224-.29-.478.162-.194.824-.535 1.144-.259.162-.932.075-1.065-.608-.13-.683.38-1.561.843-2.143.465-.583 1.281-1.347 1.281-1.347s.583-.495.385-.74c-.009-.014-.03-.02-.054-.02-.17 0-.585.343-.585.343zm12.788 12.756l2.65 1.284 1.464-3.201-2.647-1.285-1.467 3.202zm-5.028 3.434c1.121 2.693 2.819 5.03 4.77 6.748.202-1.41.422-2.404.628-3.113-1.99-1.464-3.416-3.047-4.33-4.63l-1.068.995zm13.713 2.246l2.647 1.296 1.463-3.205-2.644-1.285-1.466 3.194zm-14.403 6.712l2.25 1.916 2.201-2.713-2.258-1.93-2.193 2.727zm-.505 4.762l2.256 1.917 2.193-2.724-2.254-1.922-2.195 2.729zm10.615-2.012c-.104.048-.14.225-.072.473.072.236.465 1.269.465 1.269.277.777.747 1.677 1.38 2.138.674.49 1.022.317 1.158.265.1-.057.534-.33.38-1.036-.166-.75-.257-.952-.392-1.225-.131-.273-.31-.443-.416-.397-.064.011-.011.258-.011.413-.006.272-.098.477-.321.577-.197.087-.682.265-1.055-.414-.306-.546-.576-1.268-.69-1.562-.092-.231-.23-.51-.374-.51-.015 0-.027.004-.052.009z"/>
    </g>
</svg>
